<svg width="26" height="26" viewBox="0 0 26 26" fill="none" xmlns="http://www.w3.org/2000/svg">
<path d="M17.712 9.49262C18.7955 10.2803 19.5 11.5579 19.5 13C19.5 14.4422 18.7955 15.7197 17.712 16.5074M20.0417 7.19106C21.6975 8.58214 22.75 10.6682 22.75 13C22.75 15.3319 21.6975 17.4179 20.0417 18.809M8.97146 16.1793L12.2929 19.0408C12.9951 19.6457 14.0833 19.147 14.0833 18.2201V7.77995C14.0833 6.85311 12.9951 6.35425 12.2929 6.95921L8.97146 9.82076C8.77483 9.99017 8.52391 10.0833 8.26436 10.0833H5.41667C4.22005 10.0833 3.25 11.0534 3.25 12.25V13.75C3.25 14.9467 4.22005 15.9167 5.41667 15.9167H8.26436C8.52391 15.9167 8.77483 16.0098 8.97146 16.1793Z" stroke="white" stroke-width="1.25" stroke-linecap="round"/>
</svg>
